<?xml version="1.0" encoding="iso-8859-1"?>
<!-- Uploaded to: SVG Repo, www.svgrepo.com, Generator: SVG Repo Mixer Tools -->
<svg fill="#bf0000" height="800px" width="800px" version="1.1" id="Capa_1" xmlns="http://www.w3.org/2000/svg" xmlns:xlink="http://www.w3.org/1999/xlink"
	 viewBox="0 0 230.071 230.071" xml:space="preserve">
<path color-rendering="auto" image-rendering="auto" shape-rendering="auto" color-interpolation="sRGB" d="M75.04,0
	c-2.761,0-5,2.239-5,5v10c0,2.761,2.239,5,5,5h80c2.761,0,5-2.239,5-5V5c0-2.761-2.239-5-5-5H75.04z M75.04,29.998
	c-2.761,0-5,2.239-5,5v90c0,2.761,2.239,5,5,5h79.182c1.596,0.264,3.221-0.261,4.361-1.408c0.03-0.028,0.06-0.056,0.09-0.084
	c0.003-0.003,0.007-0.007,0.01-0.01c0.007-0.006,0.013-0.012,0.02-0.018c1.099-1.134,1.598-2.72,1.346-4.279V34.995
	c0-2.761-2.239-5-5-5h-80L75.04,29.998z M80.036,40h70v80h-70V40z M95.036,60c-2.761-0.039-5.032,2.168-5.071,4.929
	s2.168,5.032,4.929,5.071c0.047,0.001,0.094,0.001,0.141,0h40c2.761,0.039,5.032-2.168,5.071-4.929
	c0.039-2.761-2.168-5.032-4.929-5.071c-0.047-0.001-0.094-0.001-0.141,0H95.036z M95.036,80c-2.761-0.039-5.032,2.168-5.071,4.929
	s2.168,5.032,4.929,5.071c0.047,0.001,0.094,0.001,0.141,0h40c2.761,0.039,5.032-2.168,5.071-4.929
	c0.039-2.761-2.168-5.032-4.929-5.071c-0.047-0.001-0.094-0.001-0.141,0H95.036z M95.036,100c-2.761-0.039-5.032,2.168-5.071,4.929
	s2.168,5.032,4.929,5.071c0.047,0.001,0.094,0.001,0.141,0h40c2.761,0.039,5.032-2.168,5.071-4.929
	c0.039-2.761-2.168-5.032-4.929-5.071c-0.047-0.001-0.094-0.001-0.141,0H95.036z M44.96,109.93c-2.759,0.042-4.962,2.311-4.924,5.07
	v30c0,1.894,1.07,3.625,2.764,4.473l17.236,8.617V165c0,2.761,2.239,5,5,5h45v35.188c-14.436,0.992-29.039,6.242-47.236,15.34
	c-2.475,1.225-3.489,4.225-2.263,6.7c1.225,2.475,4.225,3.489,6.7,2.263c0.012-0.006,0.024-0.012,0.036-0.018
	c17.347-8.674,30.409-13.287,42.763-14.268V225c-0.1,6.762,10.096,6.762,10,0v-9.795c12.356,0.98,25.416,5.594,42.764,14.268
	c2.475,1.225,5.475,0.212,6.7-2.263c1.218-2.461,0.224-5.444-2.227-6.682c-18.198-9.099-32.8-14.348-47.237-15.34V170h45
	c2.761,0,5-2.239,5-5v-6.91l17.237-8.617c1.694-0.847,2.763-2.579,2.763-4.473v-30c0.04-2.819-2.257-5.113-5.076-5.07
	c-2.759,0.042-4.962,2.311-4.924,5.07v26.91l-10,5v-1.092c0.264-1.598-0.262-3.225-1.412-4.365c-0.026-0.028-0.053-0.055-0.08-0.082
	c-0.003-0.003-0.007-0.007-0.01-0.01c-0.007-0.007-0.013-0.013-0.02-0.02c-0.951-0.923-2.229-1.431-3.554-1.412
	c-0.246,0.005-0.491,0.029-0.733,0.07H65.036c-2.761,0-5,2.239-5,5v1.91l-10-5v-26.91C50.076,112.18,47.778,109.886,44.96,109.93
	L44.96,109.93z M70.036,150h90v10h-90V150z"/>
</svg>
