<?xml version="1.0" encoding="iso-8859-1"?>
<!-- Uploaded to: SVG Repo, www.svgrepo.com, Generator: SVG Repo Mixer Tools -->
<svg fill="#ffffff" height="800px" width="800px" version="1.1" id="Layer_1" xmlns="http://www.w3.org/2000/svg" xmlns:xlink="http://www.w3.org/1999/xlink"
	 viewBox="0 0 512 512" xml:space="preserve">
<g>
	<g>
		<path d="M468.484,116.639L260.955,1.285c-3.081-1.713-6.828-1.713-9.911,0L43.516,116.638c-3.237,1.799-5.244,5.211-5.244,8.914
			v376.249c0,5.632,4.567,10.199,10.199,10.199h415.059c5.632,0,10.199-4.567,10.199-10.199V125.553
			C473.728,121.85,471.721,118.437,468.484,116.639z M409.668,491.602H279.137V277.598c0-35.988,29.278-65.266,65.266-65.266
			c35.988,0,65.266,29.278,65.266,65.266V491.602z M453.33,491.602h-23.263V277.598c0-47.236-38.43-85.664-85.664-85.664
			s-85.664,38.43-85.664,85.664v214.004H58.67v-73.395h111.084c5.632,0,10.199-4.567,10.199-10.199
			c0-5.632-4.567-10.199-10.199-10.199H58.67V170.363L256,60.679l197.33,109.684V491.602z M453.33,147.026L260.955,40.096
			c-1.541-0.857-3.248-1.285-4.955-1.285c-1.706,0-3.415,0.428-4.955,1.285L58.67,147.026v-15.473L256,21.868l197.33,109.684
			V147.026z"/>
	</g>
</g>
<g>
	<g>
		<path d="M158.434,195.131c-43.371,0-78.656,35.285-78.656,78.656s35.285,78.657,78.656,78.657s78.657-35.286,78.657-78.657
			S201.806,195.131,158.434,195.131z M147.697,331.039c-23.526-4.404-42.107-22.985-46.511-46.511h46.511V331.039z M147.697,264.128
			h-46.705c4.03-24.035,22.82-43.118,46.705-47.589V264.128z M168.094,216.346c24.397,4.09,43.693,23.387,47.783,47.783h-47.783
			V216.346z M168.095,331.231v-46.704h47.589C211.213,308.412,192.131,327.202,168.095,331.231z"/>
	</g>
</g>
<g>
	<g>
		<path d="M219.346,397.809h-6.468c-5.632,0-10.199,4.567-10.199,10.199c0,5.632,4.567,10.199,10.199,10.199h6.468
			c5.632,0,10.199-4.567,10.199-10.199C229.545,402.376,224.978,397.809,219.346,397.809z"/>
	</g>
</g>
</svg>
