<?xml version="1.0" encoding="iso-8859-1"?>
<!-- Generator: Adobe Illustrator 19.0.0, SVG Export Plug-In . SVG Version: 6.00 Build 0)  -->
<svg version="1.1" id="Layer_1" xmlns="http://www.w3.org/2000/svg" xmlns:xlink="http://www.w3.org/1999/xlink" x="0px" y="0px"
	 viewBox="0 0 194.515 194.515"
     fill="white"
     style="enable-background:new 0 0 194.515 194.515;"
     xml:space="preserve">
<g>
	<g>
		<g>
			<path d="M98.028,72.169c4.791,0,8.686,3.895,8.686,8.686c0,1.92,1.554,3.475,3.475,3.475c1.92,0,3.475-1.554,3.475-3.475
				c0-8.622-7.014-15.636-15.636-15.636c-0.149,0-0.287,0.04-0.434,0.044v-3.518c0-1.92-1.554-3.475-3.475-3.475
				c-1.92,0-3.475,1.554-3.475,3.475v5.413c-4.887,2.647-8.252,7.759-8.252,13.697c0,8.622,7.014,15.636,15.636,15.636
				c4.791,0,8.686,3.895,8.686,8.686c0,4.791-3.895,8.686-8.686,8.686s-8.686-3.895-8.686-8.686c0-1.92-1.554-3.475-3.475-3.475
				c-1.92,0-3.475,1.554-3.475,3.475c0,6.136,3.585,11.404,8.741,13.962c-0.283,0.503-0.489,1.054-0.489,1.673v3.475
				c0,1.92,1.554,3.475,3.475,3.475c1.92,0,3.475-1.554,3.475-3.475v-3.475c0-0.016-0.009-0.029-0.009-0.045
				c0.151,0.004,0.292,0.045,0.443,0.045c8.622,0,15.636-7.014,15.636-15.636S106.65,89.54,98.028,89.54
				c-4.791,0-8.686-3.895-8.686-8.686C89.342,76.063,93.237,72.169,98.028,72.169z"/>
			<path d="M134.911,123.826c6.881-8.393,11.021-19.115,11.021-30.79c0-21.992-14.678-40.598-34.746-46.595V9.647
				c0-1.92-1.554-3.475-3.475-3.475H3.475C1.554,6.172,0,7.726,0,9.647v156.356c0,1.92,1.554,3.475,3.475,3.475h104.237
				c1.92,0,3.475-1.554,3.475-3.475v-26.371c7.136-2.133,13.561-5.879,18.915-10.79l59.5,59.501l4.913-4.913L134.911,123.826z
				 M104.237,162.528H6.949V13.121h97.288v31.826c-2.276-0.328-4.584-0.555-6.949-0.555c-11.318,0-21.719,3.918-29.992,10.424
				H24.322v6.949h35.759c-4.233,5.028-7.46,10.92-9.388,17.373H24.322v6.949h24.877c-0.328,2.276-0.555,4.584-0.555,6.949
				c0,4.831,0.731,9.49,2.049,13.898H24.322v6.949h29.083c3.25,6.813,8.016,12.752,13.892,17.373H24.322v6.949h55.015
				c5.561,2.218,11.608,3.475,17.951,3.475c2.365,0,4.673-0.227,6.949-0.555V162.528z M97.288,134.732
				c-22.992,0-41.695-18.703-41.695-41.695s18.703-41.695,41.695-41.695s41.695,18.703,41.695,41.695S120.28,134.732,97.288,134.732
				z"/>
			<rect x="24.322" y="30.494" width="62.542" height="6.949"/>
		</g>
	</g>
</g>
</svg>
