<?xml version="1.0" encoding="utf-8"?>
<!-- Generator: Adobe Illustrator 19.0.0, SVG Export Plug-In . SVG Version: 6.00 Build 0)  -->
<svg version="1.1" id="Layer_1" xmlns="http://www.w3.org/2000/svg" xmlns:xlink="http://www.w3.org/1999/xlink" x="0px" y="0px"
	 viewBox="0 0 512 512" style="enable-background:new 0 0 512 512;" xml:space="preserve">
<g id="XMLID_1_">
	<polygon id="XMLID_3_" points="185.3,457.1 185.3,464.5 319.3,464.5 319.3,496.2 192.7,496.2 192.7,457.1 185.3,457.1 185.3,464.5
		185.3,457.1 176.9,457.1 176.9,512 335.1,512 335.1,448.7 176.9,448.7 176.9,457.1 	"/>
	<polygon id="XMLID_4_" points="153.6,377.9 153.6,386.3 350,386.3 350,448.7 162,448.7 162,377.9 153.6,377.9 153.6,386.3
		153.6,377.9 146.2,377.9 146.2,464.5 365.8,464.5 365.8,370.5 146.2,370.5 146.2,377.9 	"/>
	<polygon id="XMLID_5_" points="335.1,377.9 335.1,349.1 391,244.8 256,0 121,244.8 176.9,349.1 176.9,377.9 192.7,377.9
		192.7,344.4 138.7,244.8 256,32.6 373.3,244.8 319.3,344.4 319.3,377.9 	"/>
	<path id="XMLID_6_" d="M256,203.9v7.4c13,0,23.3,10.2,23.3,23.3S269,257.9,256,257.9s-23.3-10.2-23.3-23.3s10.2-23.3,23.3-23.3
		V203.9v-7.4c-21.4,0-39.1,17.7-39.1,39.1s17.7,39.1,39.1,39.1s39.1-17.7,39.1-39.1s-17.7-39.1-39.1-39.1V203.9z"/>
	<polyline id="XMLID_7_" points="248.6,15.8 248.6,204.8 263.4,204.8 263.4,15.8 	"/>
</g>
</svg>
